<?xml version="1.0" encoding="UTF-8" standalone="no"?>
<!DOCTYPE svg PUBLIC "-//W3C//DTD SVG 1.1//EN"
 "http://www.w3.org/Graphics/SVG/1.1/DTD/svg11.dtd">
<!-- Generated by graphviz version 2.47.3 (20210619.1520)
 -->
<!-- Title: dependencies Pages: 1 -->
<svg width="614pt" height="174pt"
 viewBox="0.00 0.00 614.00 173.80" xmlns="http://www.w3.org/2000/svg" xmlns:xlink="http://www.w3.org/1999/xlink">
<g id="graph0" class="graph" transform="scale(1 1) rotate(0) translate(4 169.8)">
<title>dependencies</title>
<polygon fill="white" stroke="transparent" points="-4,4 -4,-169.8 610,-169.8 610,4 -4,4"/>
<text text-anchor="middle" x="303" y="-8.2" font-family="sans-serif" font-size="14.00">dependencies</text>
<g id="clust1" class="cluster">
<title>cluster_AuthModule</title>
<polygon fill="none" stroke="black" stroke-dasharray="1,5" points="8,-32.8 8,-157.8 598,-157.8 598,-32.8 8,-32.8"/>
</g>
<g id="clust2" class="cluster">
<title>cluster_AuthModule_declarations</title>
<polygon fill="none" stroke="black" points="314,-40.8 314,-92.8 590,-92.8 590,-40.8 314,-40.8"/>
</g>
<g id="clust5" class="cluster">
<title>cluster_AuthModule_imports</title>
<polygon fill="none" stroke="black" points="158,-40.8 158,-92.8 306,-92.8 306,-40.8 158,-40.8"/>
</g>
<g id="clust8" class="cluster">
<title>cluster_AuthModule_providers</title>
<polygon fill="none" stroke="black" points="16,-40.8 16,-92.8 150,-92.8 150,-40.8 16,-40.8"/>
</g>
<!-- LoginComponent -->
<g id="node1" class="node">
<title>LoginComponent</title>
<polygon fill="#ffffb3" stroke="black" points="582.28,-84.8 467.72,-84.8 467.72,-48.8 582.28,-48.8 582.28,-84.8"/>
<text text-anchor="middle" x="525" y="-62.6" font-family="Times,serif" font-size="14.00">LoginComponent</text>
</g>
<!-- AuthModule -->
<g id="node3" class="node">
<title>AuthModule</title>
<polygon fill="#8dd3c7" stroke="black" points="352.55,-149.8 349.55,-153.8 328.55,-153.8 325.55,-149.8 265.45,-149.8 265.45,-113.8 352.55,-113.8 352.55,-149.8"/>
<text text-anchor="middle" x="309" y="-127.6" font-family="Times,serif" font-size="14.00">AuthModule</text>
</g>
<!-- LoginComponent&#45;&gt;AuthModule -->
<g id="edge1" class="edge">
<title>LoginComponent&#45;&gt;AuthModule</title>
<path fill="none" stroke="black" d="M525,-84.91C525,-104.14 525,-131.8 525,-131.8 525,-131.8 362.71,-131.8 362.71,-131.8"/>
<polygon fill="black" stroke="black" points="362.71,-128.3 352.71,-131.8 362.71,-135.3 362.71,-128.3"/>
</g>
<!-- RegisterComponent -->
<g id="node2" class="node">
<title>RegisterComponent</title>
<polygon fill="#ffffb3" stroke="black" points="449.98,-84.8 322.02,-84.8 322.02,-48.8 449.98,-48.8 449.98,-84.8"/>
<text text-anchor="middle" x="386" y="-62.6" font-family="Times,serif" font-size="14.00">RegisterComponent</text>
</g>
<!-- RegisterComponent&#45;&gt;AuthModule -->
<g id="edge2" class="edge">
<title>RegisterComponent&#45;&gt;AuthModule</title>
<path fill="none" stroke="black" d="M337.39,-84.91C337.39,-84.91 337.39,-103.79 337.39,-103.79"/>
<polygon fill="black" stroke="black" points="333.89,-103.79 337.39,-113.79 340.89,-103.79 333.89,-103.79"/>
</g>
<!-- AuthRoutingModule -->
<g id="node4" class="node">
<title>AuthRoutingModule</title>
<polygon fill="#8dd3c7" stroke="black" points="298.17,-84.8 295.17,-88.8 274.17,-88.8 271.17,-84.8 165.83,-84.8 165.83,-48.8 298.17,-48.8 298.17,-84.8"/>
<text text-anchor="middle" x="232" y="-62.6" font-family="Times,serif" font-size="14.00">AuthRoutingModule</text>
</g>
<!-- AuthRoutingModule&#45;&gt;AuthModule -->
<g id="edge3" class="edge">
<title>AuthRoutingModule&#45;&gt;AuthModule</title>
<path fill="none" stroke="black" d="M281.78,-84.91C281.78,-84.91 281.78,-103.79 281.78,-103.79"/>
<polygon fill="black" stroke="black" points="278.28,-103.79 281.78,-113.79 285.28,-103.79 278.28,-103.79"/>
</g>
<!-- AuthService -->
<g id="node5" class="node">
<title>AuthService</title>
<ellipse fill="#fdb462" stroke="black" cx="83" cy="-66.8" rx="59.11" ry="18"/>
<text text-anchor="middle" x="83" y="-62.6" font-family="Times,serif" font-size="14.00">AuthService</text>
</g>
<!-- AuthService&#45;&gt;AuthModule -->
<g id="edge4" class="edge">
<title>AuthService&#45;&gt;AuthModule</title>
<path fill="none" stroke="black" d="M83,-84.91C83,-104.14 83,-131.8 83,-131.8 83,-131.8 255.42,-131.8 255.42,-131.8"/>
<polygon fill="black" stroke="black" points="255.42,-135.3 265.42,-131.8 255.42,-128.3 255.42,-135.3"/>
</g>
</g>
</svg>
